<svg xmlns="http://www.w3.org/2000/svg" width="16.949" height="16.949" viewBox="0 0 16.949 16.949">
    <g data-name="Group 145">
        <g data-name="Group 144">
            <path data-name="Path 502" d="m369.683 137.952-.055.024a18.137 18.137 0 0 1-3.834 1.212 12.944 12.944 0 0 1 0 5.349 18.094 18.094 0 0 1 3.835 1.206l.054.024a8.509 8.509 0 0 0 0-7.815z" transform="translate(-353.683 -133.386)" style="fill:#559bb4"/>
        </g>
    </g>
    <g data-name="Group 147">
        <g data-name="Group 146">
            <path data-name="Path 503" d="M186.112 358.724a11.776 11.776 0 0 0 2.313 4.15 11.759 11.759 0 0 0 2.313-4.15 17.649 17.649 0 0 0-4.626 0z" transform="translate(-179.952 -346.701)" style="fill:#559bb4"/>
        </g>
    </g>
    <g data-name="Group 149">
        <g data-name="Group 148">
            <path data-name="Path 504" d="M175.186 180.288a16.732 16.732 0 0 1-5.175 0 11.87 11.87 0 0 0 0 5.021 18.783 18.783 0 0 1 5.171 0 11.853 11.853 0 0 0 .004-5.021z" transform="translate(-164.125 -174.319)" style="fill:#559bb4"/>
        </g>
    </g>
    <g data-name="Group 151">
        <g data-name="Group 150">
            <path data-name="Path 505" d="M188.425 23.456a11.771 11.771 0 0 0-2.313 4.151 17.7 17.7 0 0 0 4.625 0 11.78 11.78 0 0 0-2.312-4.151z" transform="translate(-179.952 -22.679)" style="fill:#559bb4"/>
        </g>
    </g>
    <g data-name="Group 153">
        <g data-name="Group 152">
            <path data-name="Path 506" d="M278.048 0a12.848 12.848 0 0 1 2.644 4.763 16.978 16.978 0 0 0 3.6-1.119A8.456 8.456 0 0 0 278.048 0z" transform="translate(-268.843)" style="fill:#559bb4"/>
        </g>
    </g>
    <g data-name="Group 155">
        <g data-name="Group 154">
            <path data-name="Path 507" d="M45.312 3.644a17.077 17.077 0 0 0 3.6 1.119A12.848 12.848 0 0 1 51.556 0a8.458 8.458 0 0 0-6.244 3.644z" transform="translate(-43.812)" style="fill:#559bb4"/>
        </g>
    </g>
    <g data-name="Group 157">
        <g data-name="Group 156">
            <path data-name="Path 508" d="M4.838 139.22a18.163 18.163 0 0 1-3.832-1.212l-.055-.024a8.5 8.5 0 0 0 0 7.815l.055-.024a17.944 17.944 0 0 1 3.834-1.206 12.926 12.926 0 0 1-.002-5.349z" transform="translate(0 -133.416)" style="fill:#559bb4"/>
        </g>
    </g>
    <g data-name="Group 159">
        <g data-name="Group 158">
            <path data-name="Path 509" d="M48.912 368.16a16.975 16.975 0 0 0-3.6 1.118 8.458 8.458 0 0 0 6.244 3.644 12.852 12.852 0 0 1-2.644-4.762z" transform="translate(-43.812 -355.972)" style="fill:#559bb4"/>
        </g>
    </g>
    <g data-name="Group 161">
        <g data-name="Group 160">
            <path data-name="Path 510" d="M280.692 368.128a12.833 12.833 0 0 1-2.644 4.763 8.456 8.456 0 0 0 6.244-3.644 16.973 16.973 0 0 0-3.6-1.119z" transform="translate(-268.843 -355.942)" style="fill:#559bb4"/>
        </g>
    </g>
</svg>
