<svg xmlns="http://www.w3.org/2000/svg" xmlns:xlink="http://www.w3.org/1999/xlink" width="1920" zoomAndPan="magnify" viewBox="0 0 1440 809.999993" height="1080" preserveAspectRatio="xMidYMid meet" version="1.0"><defs><clipPath id="id1"><path d="M 81 176 L 1353 176 L 1353 628 L 81 628 Z M 81 176 " clip-rule="nonzero"/></clipPath></defs><rect x="-144" width="1728" fill="#ffffff" y="-80.999999" height="971.999992" fill-opacity="1"/><rect x="-144" width="1728" fill="#ffffff" y="-80.999999" height="971.999992" fill-opacity="1"/><rect x="-144" width="1728" fill="#ffffff" y="-80.999999" height="971.999992" fill-opacity="1"/><g clip-path="url(#id1)"><path fill="#ffffff" d="M 802.980469 176.878906 C 984.824219 176.878906 1166.980469 176.878906 1348.828125 176.878906 C 1351.636719 176.878906 1352.261719 177.503906 1352.261719 180.316406 C 1352.261719 328.125 1352.261719 476.246094 1352.261719 624.054688 C 1352.261719 626.867188 1351.636719 627.492188 1348.828125 627.492188 C 924.835938 627.492188 501.15625 627.492188 77.164062 627.492188 C 74.351562 627.492188 73.726562 626.867188 73.726562 624.054688 C 73.726562 476.246094 73.726562 328.125 73.726562 180.316406 C 73.726562 177.503906 74.351562 176.878906 77.164062 176.878906 C 309.3125 176.878906 541.460938 176.878906 773.609375 176.878906 C 773.296875 179.066406 771.421875 178.441406 770.171875 178.753906 C 753.925781 180.941406 738.304688 184.691406 722.992188 190.316406 C 700.496094 199.066406 680.1875 211.253906 661.753906 226.878906 C 640.820312 244.6875 623.324219 265.625 609.574219 289.375 C 593.640625 316.875 583.332031 346.25 579.582031 378.121094 C 575.832031 410.621094 579.582031 441.871094 592.078125 472.183594 C 592.703125 473.433594 593.328125 474.996094 593.328125 476.558594 C 592.078125 481.246094 592.078125 481.246094 596.765625 484.058594 C 599.578125 486.871094 600.828125 490.621094 603.015625 493.746094 C 611.761719 508.121094 622.699219 520.929688 635.820312 531.867188 C 637.070312 532.804688 638.632812 535.304688 639.882812 533.742188 C 641.445312 531.867188 638.632812 530.929688 637.382812 529.679688 C 625.824219 519.367188 615.511719 508.121094 607.074219 495.308594 C 606.140625 494.058594 604.578125 492.496094 606.761719 490.933594 C 610.511719 491.871094 613.949219 493.746094 617.699219 494.996094 C 630.820312 499.683594 644.257812 501.871094 658.316406 501.246094 C 669.253906 501.558594 680.1875 501.558594 690.8125 498.121094 C 707.058594 493.121094 719.246094 484.058594 725.492188 467.808594 C 728.929688 459.058594 729.554688 449.996094 727.992188 440.621094 C 726.117188 426.871094 717.996094 417.808594 706.121094 411.558594 C 695.5 405.621094 683.625 402.496094 671.753906 399.996094 C 663.003906 398.121094 654.566406 396.246094 646.132812 392.808594 C 638.320312 389.371094 631.757812 384.683594 630.820312 375 C 629.882812 364.0625 632.695312 354.6875 642.382812 348.4375 C 646.445312 345.9375 651.132812 344.0625 656.128906 344.0625 C 669.253906 343.75 680.5 348.75 690.8125 355.625 C 694.875 358.125 694.875 358.4375 698 355 C 698.3125 354.6875 698.9375 354.375 699.558594 354.0625 C 702.058594 354.0625 703.621094 355.625 705.496094 357.1875 C 707.058594 358.4375 708.308594 358.4375 709.558594 356.5625 C 712.683594 352.1875 715.183594 347.5 718.308594 343.125 C 719.871094 340.625 718.308594 339.0625 716.433594 338.125 C 709.246094 333.75 702.058594 330 693.9375 327.5 C 681.75 323.4375 668.941406 322.8125 656.128906 323.125 C 643.632812 322.5 631.445312 324.0625 620.199219 330 C 603.953125 338.75 595.515625 352.5 595.203125 370.9375 C 594.890625 375.9375 595.203125 381.246094 596.765625 386.246094 C 600.515625 399.996094 610.824219 407.808594 623.011719 413.121094 C 632.695312 417.496094 643.007812 419.996094 653.316406 422.183594 C 661.753906 424.058594 669.878906 426.246094 677.375 429.996094 C 685.5 433.746094 691.75 439.371094 692.375 448.746094 C 693.3125 460.308594 689.25 469.683594 678.9375 475.308594 C 673.003906 478.746094 666.441406 480.621094 659.566406 480.308594 C 645.507812 479.371094 633.007812 474.058594 621.761719 465.933594 C 620.511719 464.996094 619.261719 464.058594 618.324219 463.121094 C 616.761719 461.871094 615.824219 461.871094 614.574219 463.433594 C 613.636719 464.683594 613.011719 465.933594 611.761719 466.871094 C 608.949219 466.871094 607.386719 464.683594 605.515625 463.121094 C 603.953125 461.871094 602.703125 461.871094 601.765625 463.746094 C 600.203125 465.933594 598.953125 468.433594 597.078125 470.621094 C 596.453125 471.558594 595.515625 472.808594 593.953125 471.871094 C 589.890625 466.246094 588.328125 459.371094 586.453125 452.808594 C 580.519531 432.808594 578.332031 412.496094 579.582031 391.871094 C 581.144531 363.75 587.703125 336.875 599.578125 311.5625 C 608.949219 291.5625 620.511719 272.8125 634.882812 255.9375 C 660.816406 225.628906 692.375 203.128906 730.179688 190.003906 C 743.929688 185.316406 758.300781 182.503906 772.984375 181.253906 C 799.855469 179.066406 825.476562 182.503906 850.472656 192.816406 C 863.59375 198.128906 876.09375 205.003906 887.652344 213.753906 C 888.902344 214.691406 890.464844 217.191406 892.027344 215.316406 C 892.964844 213.753906 890.464844 212.816406 889.214844 211.878906 C 863.90625 193.128906 835.789062 182.503906 804.855469 179.066406 C 805.167969 178.441406 803.292969 178.753906 802.980469 176.878906 Z M 802.980469 176.878906 " fill-opacity="1" fill-rule="nonzero"/></g><path fill="#020203" d="M 593.328125 476.871094 C 587.390625 462.808594 582.707031 448.433594 580.207031 433.433594 C 577.082031 415.308594 576.769531 397.183594 578.644531 379.058594 C 583.953125 331.875 602.703125 290.3125 633.007812 254.0625 C 664.253906 216.878906 703.308594 191.253906 751.113281 180.628906 C 757.988281 179.066406 764.863281 178.441406 771.734375 177.503906 C 772.359375 177.503906 773.296875 177.816406 773.609375 176.878906 C 775.171875 176.878906 776.734375 176.878906 777.984375 176.878906 C 779.859375 177.503906 781.421875 177.503906 783.296875 176.878906 C 787.359375 176.878906 791.421875 176.878906 795.167969 176.878906 C 796.730469 177.503906 798.292969 177.503906 799.542969 176.878906 C 800.480469 176.878906 801.417969 176.878906 802.667969 176.878906 C 807.042969 178.441406 811.417969 178.128906 816.101562 179.066406 C 844.847656 183.753906 870.46875 195.003906 893.589844 212.816406 C 894.527344 213.753906 896.402344 214.066406 894.527344 216.253906 C 892.964844 218.128906 892.027344 217.503906 890.777344 216.253906 C 868.59375 199.378906 843.910156 188.441406 816.414062 183.753906 C 787.671875 179.066406 759.550781 181.566406 732.054688 190.941406 C 685.1875 206.878906 648.945312 236.878906 621.136719 277.5 C 602.078125 305.3125 589.578125 335.9375 584.265625 369.375 C 578.644531 403.433594 581.457031 436.871094 594.578125 469.058594 C 594.890625 469.996094 595.515625 470.933594 596.140625 472.183594 C 600.203125 478.121094 603.328125 484.996094 606.136719 491.558594 C 615.199219 506.871094 627.074219 519.679688 640.507812 531.242188 C 641.132812 531.867188 643.320312 532.179688 642.070312 534.054688 C 641.132812 535.617188 640.507812 537.179688 638.007812 535.304688 C 621.761719 521.867188 608.324219 505.933594 598.328125 487.496094 C 598.015625 486.871094 597.390625 485.933594 597.078125 485.308594 C 594.890625 482.183594 593.640625 479.683594 593.328125 476.871094 Z M 593.328125 476.871094 " fill-opacity="1" fill-rule="nonzero"/><path fill="#424242" d="M 783.609375 176.878906 C 781.734375 178.128906 780.171875 178.128906 778.296875 176.878906 C 780.171875 176.878906 781.734375 176.878906 783.609375 176.878906 Z M 783.609375 176.878906 " fill-opacity="1" fill-rule="nonzero"/><path fill="#404040" d="M 800.167969 176.878906 C 798.605469 178.128906 797.042969 178.128906 795.792969 176.878906 C 797.042969 176.878906 798.605469 176.878906 800.167969 176.878906 Z M 800.167969 176.878906 " fill-opacity="1" fill-rule="nonzero"/><path fill="#020203" d="M 1333.515625 501.558594 C 1324.769531 501.558594 1316.019531 501.558594 1307.269531 501.871094 C 1304.773438 501.871094 1304.148438 500.621094 1303.210938 499.058594 C 1290.710938 478.746094 1278.214844 458.433594 1265.714844 438.121094 C 1265.089844 437.183594 1265.089844 436.246094 1263.839844 435.933594 C 1256.65625 435.621094 1249.78125 434.996094 1242.59375 436.246094 C 1240.71875 436.558594 1238.84375 436.246094 1236.96875 436.558594 C 1231.347656 436.558594 1231.347656 436.558594 1231.347656 442.496094 C 1231.347656 447.808594 1231.347656 453.121094 1231.347656 458.433594 C 1231.347656 470.933594 1231.347656 483.433594 1231.347656 496.246094 C 1231.347656 498.121094 1231.660156 500.308594 1230.097656 501.871094 C 1222.597656 501.871094 1215.410156 501.871094 1207.914062 501.871094 C 1206.039062 501.871094 1205.414062 501.246094 1205.726562 499.683594 C 1205.726562 499.058594 1205.726562 498.433594 1205.726562 497.808594 C 1205.726562 442.496094 1205.726562 387.183594 1205.726562 331.875 C 1205.726562 328.4375 1206.664062 327.5 1210.101562 327.5 C 1230.722656 327.8125 1251.03125 327.5 1271.652344 327.5 C 1279.152344 327.8125 1286.335938 329.0625 1293.523438 331.875 C 1318.832031 342.1875 1329.453125 365.625 1326.019531 389.996094 C 1323.207031 409.371094 1312.582031 422.808594 1294.773438 430.621094 C 1292.273438 431.871094 1292.273438 432.808594 1293.523438 434.996094 C 1305.707031 454.683594 1318.207031 474.371094 1330.390625 494.058594 C 1331.640625 496.246094 1333.828125 498.433594 1333.515625 501.558594 Z M 1333.515625 501.558594 " fill-opacity="1" fill-rule="nonzero"/><path fill="#020203" d="M 106.222656 319.6875 C 113.097656 319.6875 120.28125 319.6875 127.15625 319.375 C 129.96875 319.375 130.59375 320 130.59375 322.8125 C 130.59375 345 130.59375 367.5 130.59375 389.683594 C 130.59375 392.808594 131.53125 393.433594 134.34375 393.433594 C 157.777344 393.121094 180.898438 393.433594 204.332031 393.121094 C 205.894531 391.871094 207.769531 392.183594 209.644531 392.183594 C 216.515625 392.183594 216.515625 392.183594 216.515625 384.996094 C 216.515625 365 216.515625 345 216.515625 325 C 216.515625 323.125 216.203125 320.9375 217.453125 319.375 C 224.953125 319.375 232.140625 319.375 239.636719 319.375 C 241.199219 319.375 241.824219 319.6875 241.824219 321.5625 C 241.824219 322.1875 241.824219 322.8125 241.824219 323.4375 C 241.824219 379.058594 241.824219 434.371094 241.824219 489.996094 C 241.824219 493.433594 241.199219 494.058594 237.761719 494.058594 C 230.890625 493.746094 224.328125 493.746094 217.453125 493.746094 C 216.203125 491.871094 216.515625 489.683594 216.515625 487.496094 C 216.515625 465.933594 216.515625 444.683594 216.515625 423.121094 C 216.515625 417.183594 216.515625 417.183594 210.582031 417.183594 C 208.394531 417.183594 206.207031 417.496094 204.644531 415.933594 C 180.898438 415.933594 157.152344 415.933594 133.09375 415.621094 C 130.28125 415.621094 130.59375 417.183594 130.59375 419.058594 C 130.59375 436.871094 130.59375 454.371094 130.59375 472.183594 C 130.59375 478.433594 130.59375 484.996094 130.59375 491.246094 C 130.59375 493.433594 129.96875 494.058594 127.78125 494.058594 C 120.59375 494.058594 113.410156 494.058594 106.222656 494.058594 C 104.972656 492.808594 104.972656 490.933594 104.972656 489.058594 C 104.972656 434.371094 104.972656 379.371094 104.972656 324.6875 C 104.972656 323.125 104.972656 321.25 106.222656 319.6875 Z M 106.222656 319.6875 " fill-opacity="1" fill-rule="nonzero"/><path fill="#020203" d="M 1107.304688 401.871094 C 1125.113281 401.871094 1142.921875 401.871094 1161.046875 401.871094 C 1163.234375 401.871094 1165.421875 401.871094 1167.292969 401.871094 C 1168.230469 402.808594 1168.542969 403.746094 1168.542969 404.996094 C 1168.542969 410.308594 1168.542969 415.308594 1168.542969 420.621094 C 1168.542969 421.871094 1168.230469 422.808594 1167.292969 423.746094 C 1148.546875 423.746094 1130.113281 423.746094 1111.367188 423.746094 C 1110.117188 423.746094 1108.554688 423.746094 1107.304688 423.746094 C 1104.492188 425.621094 1101.367188 424.683594 1098.554688 424.683594 C 1094.808594 424.996094 1094.183594 425.308594 1094.183594 429.058594 C 1094.183594 443.746094 1094.183594 458.746094 1094.183594 473.433594 C 1094.183594 477.496094 1094.496094 477.496094 1098.554688 477.808594 C 1101.367188 478.121094 1104.492188 477.183594 1107.304688 478.746094 C 1128.863281 478.746094 1150.421875 478.746094 1171.980469 478.746094 C 1174.480469 478.746094 1176.980469 478.746094 1179.480469 478.746094 C 1180.417969 479.683594 1180.417969 480.621094 1180.730469 481.871094 C 1180.730469 487.183594 1180.730469 492.808594 1180.730469 498.121094 C 1180.730469 499.371094 1180.417969 500.308594 1179.480469 501.246094 C 1143.546875 501.246094 1107.929688 501.246094 1072 501.246094 C 1068.5625 501.246094 1069.1875 499.371094 1069.1875 497.496094 C 1069.1875 445.308594 1069.1875 393.121094 1069.1875 340.625 C 1069.1875 336.875 1069.1875 332.8125 1069.1875 329.0625 C 1069.1875 326.875 1069.8125 326.5625 1071.6875 326.5625 C 1106.992188 326.5625 1142.300781 326.5625 1177.605469 326.5625 C 1179.480469 330 1179.480469 345.3125 1177.605469 348.75 C 1155.734375 348.75 1133.863281 348.75 1111.679688 348.75 C 1110.117188 348.75 1108.554688 348.75 1107.304688 348.75 C 1104.492188 350.625 1101.367188 349.6875 1098.554688 349.6875 C 1094.808594 350 1094.183594 350.3125 1094.183594 354.0625 C 1094.183594 367.8125 1094.183594 381.558594 1094.183594 395.308594 C 1094.183594 399.371094 1094.496094 399.371094 1098.554688 399.683594 C 1101.367188 401.246094 1104.492188 400.308594 1107.304688 401.871094 Z M 1107.304688 401.871094 " fill-opacity="1" fill-rule="nonzero"/><path fill="#020203" d="M 658.003906 345 C 637.695312 347.1875 629.886719 362.5 633.945312 378.433594 C 635.507812 384.371094 639.882812 388.121094 645.195312 390.621094 C 653.941406 394.996094 663.628906 396.871094 673.003906 399.058594 C 687.375 402.496094 701.746094 406.246094 713.933594 414.996094 C 724.867188 422.808594 729.867188 433.433594 730.492188 446.558594 C 732.054688 479.371094 709.246094 497.808594 680.8125 501.871094 C 673.628906 502.808594 666.441406 502.496094 659.253906 502.496094 C 650.507812 502.183594 642.070312 501.246094 633.945312 498.433594 C 624.574219 494.996094 615.824219 490.621094 607.699219 484.683594 C 603.328125 481.246094 602.703125 479.996094 605.828125 475.621094 C 608.011719 472.496094 609.261719 469.058594 612.699219 466.871094 C 614.261719 464.683594 615.824219 462.496094 617.386719 460.308594 C 629.574219 471.558594 644.257812 478.121094 660.816406 479.683594 C 671.441406 479.996094 682.0625 479.371094 691.75 474.058594 C 701.746094 468.746094 707.058594 457.808594 704.246094 446.558594 C 702.371094 438.433594 696.4375 434.371094 689.5625 431.246094 C 681.125 427.496094 672.378906 425.621094 663.316406 423.433594 C 651.132812 420.621094 639.257812 417.496094 628.324219 410.933594 C 611.449219 400.933594 605.515625 385.933594 607.386719 367.1875 C 609.886719 344.6875 622.699219 330.9375 643.945312 324.0625 C 648.320312 322.5 653.007812 322.8125 657.691406 322.1875 C 674.253906 321.25 690.5 323.4375 705.808594 330.3125 C 711.121094 332.8125 715.808594 335.625 720.496094 338.75 C 722.058594 340 722.371094 340.9375 721.121094 342.8125 C 717.683594 348.125 714.246094 353.4375 710.808594 358.75 C 709.558594 360.625 708.933594 360.3125 707.371094 359.0625 C 705.496094 357.5 703.308594 355.625 700.808594 354.6875 C 698 354.375 696.125 352.8125 693.625 351.5625 C 682.6875 346.5625 670.503906 344.375 658.003906 345 Z M 658.003906 345 " fill-opacity="1" fill-rule="nonzero"/><path fill="#020203" d="M 447.101562 319.6875 C 468.972656 319.6875 491.15625 319.0625 513.03125 319.6875 C 533.027344 320.3125 550.210938 327.5 561.144531 345.625 C 581.144531 378.746094 562.082031 420.933594 524.277344 428.121094 C 513.964844 429.996094 503.65625 429.371094 493.34375 429.683594 C 487.097656 429.683594 481.160156 429.996094 474.910156 429.683594 C 472.097656 429.683594 471.472656 430.308594 471.472656 433.121094 C 471.472656 452.183594 471.472656 471.246094 471.785156 490.308594 C 471.785156 493.433594 471.160156 494.371094 468.035156 494.058594 C 461.164062 493.746094 454.289062 494.058594 447.414062 493.746094 C 446.164062 492.496094 446.164062 490.621094 446.164062 488.746094 C 446.164062 434.058594 446.164062 379.058594 446.164062 324.375 C 445.851562 323.125 445.851562 321.25 447.101562 319.6875 Z M 447.101562 319.6875 " fill-opacity="1" fill-rule="nonzero"/><path fill="#020203" d="M 338.058594 328.75 C 339.621094 325.625 340.871094 322.5 342.433594 319.375 C 342.746094 318.4375 343.058594 316.875 344.308594 316.875 C 345.558594 316.875 345.558594 318.4375 346.183594 319.375 C 354.929688 338.4375 363.367188 357.1875 372.117188 376.246094 C 389.613281 414.683594 407.109375 453.433594 424.605469 491.871094 C 424.917969 492.496094 424.917969 493.121094 425.542969 494.058594 C 416.796875 494.058594 408.046875 494.058594 399.296875 494.058594 C 397.738281 493.433594 397.113281 491.558594 396.488281 490.308594 C 392.425781 481.246094 388.363281 472.183594 384.300781 462.808594 C 383.363281 460.621094 381.800781 459.371094 379.300781 459.371094 C 354.929688 457.808594 330.558594 459.058594 306.5 458.746094 C 306.1875 458.746094 305.875 458.746094 305.5625 459.058594 C 300.878906 469.683594 295.878906 480.621094 291.191406 491.246094 C 290.253906 493.433594 289.316406 494.371094 286.816406 494.371094 C 279.320312 494.058594 271.507812 494.058594 264.007812 494.058594 C 263.070312 492.808594 264.007812 491.558594 264.320312 490.621094 C 274.320312 468.746094 284.003906 446.871094 294.003906 425.308594 C 304.003906 403.121094 314 380.933594 324 358.75 C 328.0625 350 332.121094 340.9375 336.183594 332.1875 C 336.183594 330.9375 336.808594 329.6875 338.058594 328.75 Z M 338.058594 328.75 " fill-opacity="1" fill-rule="nonzero"/><path fill="#020203" d="M 1045.753906 348.75 C 1029.816406 348.75 1013.882812 348.75 997.949219 349.0625 C 995.449219 350.625 992.636719 350 989.824219 350 C 987.011719 350 985.449219 350.9375 985.449219 354.0625 C 985.449219 355.3125 985.449219 356.875 985.449219 358.125 C 985.449219 403.433594 985.449219 449.058594 985.449219 494.371094 C 985.449219 496.558594 986.074219 499.058594 984.199219 501.246094 C 976.703125 501.246094 969.515625 501.246094 962.015625 501.246094 C 960.140625 501.246094 959.515625 500.621094 959.828125 499.058594 C 959.828125 494.058594 959.828125 488.746094 959.828125 483.746094 C 959.828125 439.996094 959.828125 396.246094 959.828125 352.5 C 959.828125 349.375 959.203125 348.75 956.078125 348.75 C 937.957031 349.0625 920.148438 348.75 902.027344 349.0625 C 898.902344 349.0625 898.277344 348.125 898.589844 345.3125 C 898.902344 340.3125 898.902344 335.625 898.589844 330.625 C 898.589844 327.8125 899.214844 326.875 902.339844 326.875 C 934.207031 326.875 966.078125 326.875 997.949219 326.875 C 1013.882812 326.875 1029.816406 326.875 1045.753906 326.875 C 1046.691406 327.8125 1047.003906 329.0625 1047.003906 330.3125 C 1047.003906 335.3125 1047.003906 340.3125 1047.003906 345 C 1047.003906 346.5625 1046.691406 347.8125 1045.753906 348.75 Z M 1045.753906 348.75 " fill-opacity="1" fill-rule="nonzero"/><path fill="#77c6dd" d="M 852.660156 375.933594 C 852.660156 384.996094 852.660156 394.058594 852.660156 403.121094 C 852.660156 405.933594 851.722656 406.558594 849.222656 406.558594 C 831.101562 406.558594 812.980469 406.558594 794.855469 406.558594 C 792.046875 406.558594 791.421875 405.621094 791.421875 403.121094 C 791.421875 384.996094 791.421875 366.875 791.421875 348.4375 C 791.421875 345.625 792.359375 345 794.855469 345 C 812.980469 345 831.101562 345 849.222656 345 C 852.035156 345 852.660156 345.9375 852.660156 348.4375 C 852.660156 357.8125 852.660156 366.875 852.660156 375.933594 Z M 852.660156 375.933594 " fill-opacity="1" fill-rule="nonzero"/><path fill="#f5d55b" d="M 719.246094 572.492188 C 718.933594 590.617188 705.496094 605.929688 685.1875 605.929688 C 666.441406 605.929688 651.757812 590.617188 651.757812 572.179688 C 651.757812 553.429688 666.753906 538.742188 685.5 538.742188 C 704.246094 539.054688 719.246094 554.054688 719.246094 572.492188 Z M 719.246094 572.492188 " fill-opacity="1" fill-rule="nonzero"/><path fill="#bad9ba" d="M 893.589844 252.1875 C 892.652344 235.316406 907.339844 218.753906 927.023438 218.753906 C 947.019531 218.753906 960.765625 235.941406 960.765625 252.5 C 960.453125 270.3125 945.769531 285.9375 927.335938 285.9375 C 908.589844 285.9375 892.964844 270.9375 893.589844 252.1875 Z M 893.589844 252.1875 " fill-opacity="1" fill-rule="nonzero"/><path fill="#bad9ba" d="M 1333.515625 501.558594 C 1320.707031 480.933594 1307.894531 459.996094 1295.085938 439.371094 C 1293.523438 436.871094 1291.960938 434.371094 1290.085938 431.558594 C 1296.648438 428.746094 1303.210938 425.621094 1308.519531 420.933594 C 1322.582031 408.433594 1326.957031 392.496094 1325.082031 374.6875 C 1321.957031 345.3125 1299.460938 331.25 1275.402344 328.125 C 1274.152344 327.8125 1272.589844 327.8125 1271.339844 327.5 C 1285.085938 326.875 1298.523438 328.4375 1311.332031 334.6875 C 1325.707031 341.875 1335.078125 353.125 1338.203125 369.0625 C 1341.640625 384.996094 1339.453125 399.683594 1330.078125 413.121094 C 1324.769531 420.308594 1318.207031 425.933594 1310.082031 429.371094 C 1304.460938 431.871094 1304.460938 431.558594 1307.582031 436.558594 C 1320.394531 457.183594 1333.203125 477.808594 1346.015625 498.433594 C 1346.640625 499.371094 1346.953125 500.308594 1347.578125 501.871094 C 1342.578125 501.558594 1338.203125 501.558594 1333.515625 501.558594 Z M 1333.515625 501.558594 " fill-opacity="1" fill-rule="nonzero"/><path fill="#faeaaa" d="M 106.222656 319.6875 C 106.222656 377.808594 106.222656 435.933594 106.222656 494.058594 C 103.097656 494.058594 99.660156 494.058594 96.535156 494.058594 C 94.039062 494.371094 93.101562 493.121094 93.414062 490.933594 C 93.414062 490.621094 93.414062 490.308594 93.414062 489.683594 C 93.414062 434.371094 93.414062 379.058594 93.414062 324.0625 C 93.414062 320.9375 94.039062 319.375 97.785156 319.6875 C 100.597656 320 103.410156 319.6875 106.222656 319.6875 Z M 106.222656 319.6875 " fill-opacity="1" fill-rule="nonzero"/><path fill="#faeaaa" d="M 447.101562 319.6875 C 447.101562 377.808594 447.101562 435.933594 447.101562 494.058594 C 443.980469 494.058594 440.542969 494.058594 437.417969 494.058594 C 434.917969 494.371094 433.980469 493.121094 434.292969 490.933594 C 434.292969 490.621094 434.292969 490.308594 434.292969 489.683594 C 434.292969 434.371094 434.292969 379.058594 434.292969 324.0625 C 434.292969 320.9375 434.917969 319.375 438.667969 319.6875 C 441.480469 320 444.289062 319.6875 447.101562 319.6875 Z M 447.101562 319.6875 " fill-opacity="1" fill-rule="nonzero"/><path fill="#faeaaa" d="M 338.058594 328.75 C 326.1875 355.3125 314 381.871094 302.128906 408.433594 C 289.316406 436.871094 276.507812 465.308594 263.382812 493.746094 C 259.945312 493.746094 256.511719 493.746094 253.386719 493.746094 C 250.886719 493.746094 250.886719 492.808594 251.824219 490.933594 C 259.007812 474.996094 266.195312 459.058594 273.382812 443.433594 C 285.878906 415.621094 298.378906 387.808594 311.1875 360 C 317.4375 346.25 323.375 332.8125 329.621094 319.0625 C 329.933594 318.125 330.246094 316.5625 331.496094 316.5625 C 332.746094 316.5625 332.746094 318.125 333.371094 319.0625 C 335.246094 322.5 335.871094 326.25 338.058594 328.75 Z M 338.058594 328.75 " fill-opacity="1" fill-rule="nonzero"/><path fill="#bad9ba" d="M 984.511719 501.558594 C 984.511719 452.183594 984.511719 402.496094 984.511719 353.125 C 984.511719 349.6875 985.449219 348.4375 988.886719 349.0625 C 992.011719 349.375 995.136719 349.0625 998.261719 349.375 C 998.261719 398.746094 998.261719 448.121094 998.261719 497.496094 C 998.261719 500.933594 997.636719 502.183594 993.886719 501.871094 C 990.761719 501.246094 987.636719 501.558594 984.511719 501.558594 Z M 984.511719 501.558594 " fill-opacity="1" fill-rule="nonzero"/><path fill="#fbecb2" d="M 657.691406 322.1875 C 649.257812 323.4375 640.820312 325.3125 633.320312 329.375 C 613.949219 339.6875 606.453125 359.0625 608.636719 379.371094 C 610.511719 397.496094 622.074219 407.496094 637.382812 414.371094 C 648.945312 419.371094 661.441406 421.871094 673.628906 424.683594 C 679.875 426.246094 686.125 428.433594 692.0625 430.933594 C 712.683594 440.308594 708.308594 465.308594 694.5625 473.746094 C 684.25 479.996094 673.003906 481.246094 661.128906 479.683594 C 669.566406 479.683594 677.375 477.183594 683.9375 472.183594 C 695.5 463.433594 698.625 439.996094 679.5625 431.558594 C 669.253906 426.871094 658.628906 424.683594 647.695312 422.183594 C 634.882812 419.058594 622.074219 415.308594 611.449219 407.183594 C 601.140625 399.683594 596.140625 389.058594 595.515625 376.558594 C 595.203125 366.25 596.765625 356.25 602.078125 347.1875 C 609.886719 334.375 622.074219 327.5 636.445312 324.0625 C 643.632812 321.875 650.820312 321.5625 657.691406 322.1875 Z M 657.691406 322.1875 " fill-opacity="1" fill-rule="nonzero"/><path fill="#020203" d="M 912.335938 497.808594 C 912.335938 525.617188 902.339844 549.679688 884.84375 570.929688 C 864.53125 595.929688 839.226562 614.054688 807.667969 622.492188 C 779.859375 629.992188 753.300781 627.804688 728.929688 611.867188 C 726.429688 610.304688 726.429688 609.054688 727.992188 607.179688 C 729.554688 604.992188 730.492188 606.242188 732.054688 607.179688 C 742.679688 614.367188 754.238281 618.429688 767.050781 620.304688 C 784.859375 622.804688 802.042969 619.992188 818.289062 613.429688 C 853.285156 599.679688 879.84375 576.554688 896.402344 542.804688 C 918.273438 497.808594 905.777344 448.121094 865.15625 417.496094 C 863.28125 415.933594 862.96875 414.996094 864.21875 412.808594 C 866.09375 409.996094 867.03125 411.558594 868.59375 412.808594 C 891.714844 430.621094 906.714844 453.433594 911.398438 482.496094 C 911.710938 484.683594 912.023438 487.183594 912.335938 489.683594 C 912.648438 491.871094 912.335938 494.683594 912.335938 497.808594 Z M 912.335938 497.808594 " fill-opacity="1" fill-rule="nonzero"/><path fill="#f9e9aa" d="M 204.644531 416.246094 C 207.769531 416.246094 211.207031 416.246094 214.328125 415.933594 C 217.140625 415.621094 217.765625 416.871094 217.765625 419.371094 C 217.765625 442.808594 217.765625 465.933594 217.765625 489.371094 C 217.765625 490.933594 217.765625 492.496094 217.765625 493.746094 C 214.328125 493.746094 210.894531 493.746094 207.769531 493.746094 C 205.269531 493.746094 204.644531 492.808594 204.644531 490.621094 C 204.644531 479.683594 204.644531 469.058594 204.644531 458.121094 C 204.332031 444.371094 204.644531 430.308594 204.644531 416.246094 Z M 204.644531 416.246094 " fill-opacity="1" fill-rule="nonzero"/><path fill="#f9e9aa" d="M 217.765625 320 C 217.765625 343.4375 217.765625 366.875 217.765625 390.308594 C 217.765625 393.433594 216.828125 394.371094 213.703125 394.058594 C 210.582031 393.746094 207.457031 394.058594 204.332031 393.746094 C 204.332031 370.3125 204.332031 346.875 204.332031 323.75 C 204.332031 320.625 205.269531 319.375 208.394531 319.6875 C 211.519531 320 214.640625 319.6875 217.765625 320 Z M 217.765625 320 " fill-opacity="1" fill-rule="nonzero"/><path fill="#bad9ba" d="M 1230.097656 501.558594 C 1230.097656 480.621094 1230.097656 459.683594 1230.097656 439.058594 C 1230.097656 436.246094 1230.722656 435.308594 1233.847656 435.308594 C 1242.59375 435.621094 1251.65625 435.308594 1260.402344 435.308594 C 1261.652344 435.308594 1262.902344 434.996094 1263.839844 435.621094 C 1258.527344 435.621094 1253.21875 435.933594 1248.21875 435.621094 C 1245.09375 435.621094 1244.46875 436.558594 1244.46875 439.683594 C 1244.46875 459.058594 1244.46875 478.433594 1244.46875 497.496094 C 1244.46875 500.621094 1243.84375 501.871094 1240.71875 501.558594 C 1237.28125 501.246094 1233.535156 501.558594 1230.097656 501.558594 Z M 1230.097656 501.558594 " fill-opacity="1" fill-rule="nonzero"/><path fill="#020304" d="M 793.605469 425.308594 C 793.292969 425.933594 792.671875 426.558594 792.359375 427.183594 C 768.925781 459.058594 745.179688 490.933594 721.746094 523.117188 C 719.558594 526.242188 718.308594 523.429688 716.746094 522.804688 C 714.558594 521.867188 714.871094 520.617188 716.121094 518.742188 C 739.554688 487.183594 762.988281 455.308594 786.421875 423.433594 C 787.046875 422.496094 787.359375 420.621094 788.921875 421.558594 C 790.796875 422.496094 792.359375 423.433594 793.605469 425.308594 Z M 793.605469 425.308594 " fill-opacity="1" fill-rule="nonzero"/><path fill="#bad9b9" d="M 1107.304688 479.058594 C 1103.554688 479.058594 1099.492188 479.058594 1095.742188 479.058594 C 1093.871094 479.058594 1093.246094 478.433594 1093.246094 476.871094 C 1093.246094 459.996094 1093.246094 443.121094 1093.246094 425.933594 C 1093.246094 424.058594 1093.871094 423.433594 1095.742188 423.746094 C 1099.492188 423.746094 1103.554688 423.746094 1107.304688 423.746094 C 1107.304688 442.183594 1107.304688 460.621094 1107.304688 479.058594 Z M 1107.304688 479.058594 " fill-opacity="1" fill-rule="nonzero"/><path fill="#bad9b9" d="M 1107.304688 401.871094 C 1103.554688 401.871094 1099.492188 401.871094 1095.742188 401.871094 C 1093.871094 401.871094 1093.246094 401.246094 1093.246094 399.683594 C 1093.246094 383.746094 1093.246094 367.8125 1093.246094 351.875 C 1093.246094 350 1093.871094 349.375 1095.742188 349.6875 C 1099.492188 349.6875 1103.554688 349.6875 1107.304688 349.6875 C 1107.304688 367.1875 1107.304688 384.683594 1107.304688 401.871094 Z M 1107.304688 401.871094 " fill-opacity="1" fill-rule="nonzero"/><path fill="#f9eaaa" d="M 305.25 458.746094 C 306.1875 457.808594 307.4375 458.121094 308.375 458.121094 C 332.433594 458.121094 356.179688 458.121094 380.238281 458.121094 C 382.425781 458.121094 383.675781 458.433594 384.925781 460.933594 C 389.613281 471.871094 394.613281 483.121094 399.296875 494.058594 C 396.175781 494.058594 392.738281 494.058594 389.613281 494.371094 C 387.113281 494.683594 386.175781 493.433594 385.238281 491.246094 C 381.175781 481.558594 376.488281 471.558594 372.429688 461.871094 C 371.492188 459.683594 370.242188 459.058594 368.054688 459.058594 C 346.808594 458.746094 326.1875 458.746094 305.25 458.746094 Z M 305.25 458.746094 " fill-opacity="1" fill-rule="nonzero"/><path fill="#faebb2" d="M 612.699219 466.558594 C 610.511719 469.996094 608.636719 473.433594 606.140625 476.558594 C 603.953125 479.371094 603.953125 480.933594 607.074219 483.121094 C 621.449219 494.058594 637.695312 500.308594 655.816406 501.871094 C 657.066406 501.871094 658.003906 502.183594 658.941406 502.496094 C 641.445312 503.433594 624.886719 499.996094 609.261719 492.496094 C 608.324219 491.871094 607.078125 491.558594 606.140625 491.246094 C 602.078125 484.996094 598.640625 478.746094 596.140625 471.871094 C 598.953125 469.058594 600.828125 465.308594 603.015625 461.871094 C 604.265625 459.996094 604.890625 459.996094 606.453125 461.558594 C 608.636719 463.433594 610.824219 464.683594 612.699219 466.558594 Z M 612.699219 466.558594 " fill-opacity="1" fill-rule="nonzero"/><path fill="#030304" d="M 863.28125 338.4375 C 861.722656 337.1875 860.160156 336.25 858.910156 335 C 857.660156 333.75 859.535156 333.125 859.847656 332.1875 C 870.46875 318.125 881.40625 303.75 892.027344 289.6875 C 893.589844 287.8125 894.527344 286.875 896.714844 289.0625 C 898.589844 290.625 899.527344 291.25 897.652344 293.75 C 886.714844 307.8125 876.09375 321.875 865.15625 336.25 C 864.53125 336.875 863.90625 337.5 863.28125 338.4375 Z M 863.28125 338.4375 " fill-opacity="1" fill-rule="nonzero"/><path fill="#bad9ba" d="M 1177.605469 349.6875 C 1177.605469 342.1875 1177.605469 335 1177.605469 327.5 C 1181.355469 327.5 1184.792969 327.5 1188.539062 327.5 C 1190.414062 327.5 1191.351562 328.125 1191.351562 330.3125 C 1191.351562 335.9375 1191.351562 341.875 1191.351562 347.5 C 1191.351562 349.6875 1190.414062 350.3125 1188.539062 350.3125 C 1184.792969 349.6875 1181.042969 349.6875 1177.605469 349.6875 Z M 1177.605469 349.6875 " fill-opacity="1" fill-rule="nonzero"/><path fill="#bad9b9" d="M 1179.167969 501.558594 C 1179.167969 494.058594 1179.167969 486.558594 1179.167969 479.371094 C 1182.917969 479.371094 1186.355469 479.371094 1190.101562 479.371094 C 1191.976562 479.371094 1192.914062 479.683594 1192.914062 481.871094 C 1192.914062 487.808594 1192.914062 493.433594 1192.914062 499.371094 C 1192.914062 501.558594 1191.976562 501.871094 1190.101562 501.871094 C 1186.355469 501.558594 1182.917969 501.558594 1179.167969 501.558594 Z M 1179.167969 501.558594 " fill-opacity="1" fill-rule="nonzero"/><path fill="#bad9ba" d="M 1045.753906 348.75 C 1045.753906 341.5625 1045.753906 334.375 1045.753906 327.1875 C 1049.1875 327.1875 1052.625 327.1875 1056.375 327.1875 C 1058.5625 327.1875 1059.5 327.8125 1059.5 330 C 1059.5 335.3125 1059.5 340.625 1059.5 345.9375 C 1059.5 348.4375 1058.5625 348.75 1056.375 348.75 C 1052.9375 348.75 1049.1875 348.75 1045.753906 348.75 Z M 1045.753906 348.75 " fill-opacity="1" fill-rule="nonzero"/><path fill="#bad9ba" d="M 1167.292969 423.746094 C 1167.292969 416.558594 1167.292969 409.371094 1167.292969 402.183594 C 1171.042969 402.183594 1174.480469 402.183594 1178.230469 402.183594 C 1180.105469 402.183594 1181.042969 402.496094 1181.042969 404.683594 C 1181.042969 410.308594 1181.042969 415.933594 1181.042969 421.558594 C 1181.042969 423.746094 1180.105469 424.058594 1178.230469 424.058594 C 1174.480469 423.746094 1170.730469 423.746094 1167.292969 423.746094 Z M 1167.292969 423.746094 " fill-opacity="1" fill-rule="nonzero"/><path fill="#faebb2" d="M 658.003906 345 C 669.566406 343.125 680.5 345 691.125 349.375 C 694.5625 350.9375 698.3125 352.1875 701.121094 354.6875 C 698.9375 355.9375 698.9375 360 696.4375 359.6875 C 694.25 359.375 692.6875 357.1875 690.5 355.9375 C 680.5 349.375 669.878906 345 658.003906 345 Z M 658.003906 345 " fill-opacity="1" fill-rule="nonzero"/><path fill="#f4e7b5" d="M 593.328125 476.871094 C 594.890625 479.371094 596.140625 481.871094 597.078125 484.371094 C 594.578125 484.058594 593.640625 482.183594 592.078125 480.621094 C 590.515625 479.058594 593.015625 478.121094 593.328125 476.871094 Z M 593.328125 476.871094 " fill-opacity="1" fill-rule="nonzero"/><path fill="#ffffff" d="M 1244.46875 349.0625 C 1255.71875 349.0625 1266.964844 347.5 1277.902344 350.9375 C 1293.835938 355.9375 1301.648438 367.1875 1300.710938 384.683594 C 1300.085938 398.746094 1290.085938 409.371094 1275.089844 412.808594 C 1265.089844 414.996094 1254.78125 414.371094 1244.46875 414.058594 C 1243.21875 412.808594 1243.21875 410.933594 1243.21875 409.058594 C 1243.21875 390.621094 1243.21875 372.1875 1243.21875 354.0625 C 1243.21875 352.1875 1243.21875 350.3125 1244.46875 349.0625 Z M 1244.46875 349.0625 " fill-opacity="1" fill-rule="nonzero"/><path fill="#bad9ba" d="M 1244.46875 349.0625 C 1244.46875 370.625 1244.46875 392.496094 1244.46875 414.058594 C 1240.40625 414.058594 1236.65625 414.058594 1232.597656 414.058594 C 1230.722656 414.058594 1230.097656 413.746094 1230.097656 411.871094 C 1230.097656 391.558594 1230.097656 371.25 1230.097656 350.9375 C 1230.097656 349.0625 1230.722656 348.75 1232.597656 348.75 C 1236.65625 348.75 1240.40625 348.75 1244.46875 349.0625 Z M 1244.46875 349.0625 " fill-opacity="1" fill-rule="nonzero"/><path fill="#ffffff" d="M 472.097656 408.121094 C 471.160156 407.183594 471.472656 405.933594 471.472656 404.996094 C 471.472656 384.683594 471.472656 364.6875 471.472656 344.375 C 471.472656 341.875 471.785156 340.9375 474.597656 340.9375 C 483.347656 341.25 492.40625 341.25 501.15625 341.25 C 504.90625 342.1875 508.65625 341.875 512.09375 343.4375 C 525.839844 349.6875 533.339844 362.5 532.089844 377.808594 C 530.527344 393.746094 522.089844 403.746094 506.46875 407.496094 C 504.59375 408.121094 502.40625 408.121094 500.53125 408.121094 C 491.15625 408.433594 481.785156 408.746094 472.097656 408.121094 Z M 472.097656 408.121094 " fill-opacity="1" fill-rule="nonzero"/><path fill="#f9eaaa" d="M 472.097656 408.121094 C 480.535156 408.121094 488.660156 408.121094 497.09375 407.808594 C 508.65625 407.183594 519.277344 403.746094 525.839844 393.433594 C 536.777344 375.933594 531.464844 346.25 502.71875 342.1875 C 502.09375 342.1875 501.46875 342.1875 501.15625 341.5625 C 507.09375 341.25 513.03125 341.25 518.964844 342.8125 C 538.335938 347.5 545.835938 363.125 543.335938 380.621094 C 541.148438 396.246094 531.777344 405.308594 514.589844 407.808594 C 500.53125 409.683594 486.472656 408.746094 472.097656 408.121094 Z M 472.097656 408.121094 " fill-opacity="1" fill-rule="nonzero"/><path fill="#ffffff" d="M 361.804688 437.183594 C 361.179688 437.183594 360.554688 437.183594 359.929688 437.183594 C 344.933594 437.183594 329.933594 437.183594 314.3125 437.183594 C 322.4375 419.371094 330.246094 402.183594 338.058594 384.683594 C 339.933594 384.996094 340.246094 386.871094 340.871094 388.433594 C 347.121094 402.496094 353.367188 416.871094 359.929688 430.933594 C 360.867188 432.808594 362.117188 434.683594 361.804688 437.183594 Z M 361.804688 437.183594 " fill-opacity="1" fill-rule="nonzero"/><path fill="#f9eaaa" d="M 361.804688 437.183594 C 354.617188 420.933594 347.121094 404.683594 339.933594 388.433594 C 339.308594 387.183594 338.683594 385.933594 338.058594 384.683594 C 339.933594 379.996094 342.121094 375.308594 343.996094 370.625 C 345.871094 373.4375 370.242188 426.246094 374.300781 436.871094 C 369.929688 437.183594 365.867188 437.183594 361.804688 437.183594 Z M 361.804688 437.183594 " fill-opacity="1" fill-rule="nonzero"/></svg>