<svg xmlns="http://www.w3.org/2000/svg" width="182" height="65.087" viewBox="0 0 182 65.087">
    <g data-name="Logo Hapster vectoris‚">
        <path data-name="Path 66" d="M579.783 220.292a27.93 27.93 0 0 1-1.9-6.286 28.619 28.619 0 0 1-.227-7.869 33.545 33.545 0 0 1 7.889-18.089 30.754 30.754 0 0 1 17.138-10.627c1-.226 2-.317 2.992-.452.091 0 .227.045.272-.09h.635a1.129 1.129 0 0 0 .771 0h1.723a.775.775 0 0 0 .635 0h.454a13.5 13.5 0 0 0 1.949.317 24.619 24.619 0 0 1 11.244 4.884c.136.136.408.181.136.5-.227.271-.363.181-.544 0a24.357 24.357 0 0 0-10.791-4.7 25.008 25.008 0 0 0-12.241 1.04 31.539 31.539 0 0 0-16.1 12.526 32.181 32.181 0 0 0-5.35 13.3 26.165 26.165 0 0 0 1.5 14.426 4.182 4.182 0 0 0 .227.452 16.383 16.383 0 0 1 1.451 2.8 23.256 23.256 0 0 0 4.988 5.743c.091.09.408.136.227.407-.136.226-.227.452-.589.181a23.5 23.5 0 0 1-5.758-6.919c-.045-.09-.136-.226-.181-.317a2.613 2.613 0 0 1-.55-1.227zm0 0" transform="translate(-507.233 -176.879)" style="fill:#020203"/>
        <path data-name="Path 67" d="M779.068 176.879a.616.616 0 0 1-.771 0zm0 0" transform="translate(-678.905 -176.879)" style="fill:#424242"/>
        <path data-name="Path 68" d="M796.428 176.879a.438.438 0 0 1-.635 0zm0 0" transform="translate(-693.862 -176.879)" style="fill:#404040"/>
        <path data-name="Path 69" d="M1224.2 352.689c-1.269 0-2.539 0-3.809.045-.362 0-.452-.181-.589-.407l-5.441-8.819c-.091-.136-.091-.271-.272-.317a14.058 14.058 0 0 0-3.083.045c-.272.045-.544 0-.816.045-.815 0-.815 0-.815.859v7.779a1.046 1.046 0 0 1-.181.814h-3.219c-.272 0-.363-.091-.318-.317v-24.283c0-.5.136-.633.635-.633 2.992.045 5.94 0 8.932 0a9.669 9.669 0 0 1 3.174.633 7.556 7.556 0 0 1 4.715 8.411 7.209 7.209 0 0 1-4.534 5.879c-.363.181-.363.317-.181.633 1.768 2.849 3.582 5.7 5.349 8.547.185.317.503.634.453 1.086zm0 0" transform="translate(-1044.245 -305.703)" style="fill:#020203"/>
        <path data-name="Path 70" d="M105.154 319.42c1 0 2.04 0 3.038-.045.408 0 .5.09.5.5v9.677c0 .452.136.543.544.543 3.4-.045 6.756 0 10.156-.045a1.133 1.133 0 0 1 .771-.136c1 0 1 0 1-1.04v-8.682a1.253 1.253 0 0 1 .136-.814h3.219c.227 0 .317.045.317.317v24.375c0 .5-.091.588-.589.588-1-.045-1.949-.045-2.947-.045a1.533 1.533 0 0 1-.136-.9v-9.316c0-.859 0-.859-.861-.859-.317 0-.635.045-.862-.181-3.446 0-6.892 0-10.383-.045-.408 0-.363.226-.363.5v10.447c0 .317-.091.407-.408.407h-3.128a.973.973 0 0 1-.181-.724v-23.798a1.085 1.085 0 0 1 .177-.724zm0 0" transform="translate(-103.287 -298.754)" style="fill:#020203"/>
        <path data-name="Path 71" d="M1074.681 337.461h8.705a.579.579 0 0 1 .181.452v2.261a.579.579 0 0 1-.181.452h-8.705a2.063 2.063 0 0 1-1.27.136c-.544.045-.635.091-.635.633v6.422c0 .588.045.588.635.633.408.045.862-.09 1.27.136h10.473a.8.8 0 0 1 .181.452v2.352a.58.58 0 0 1-.181.452h-15.6c-.5 0-.408-.271-.408-.543v-24.375c0-.317.091-.362.363-.362h15.37a6.419 6.419 0 0 1 0 3.211h-10.2a2.063 2.063 0 0 1-1.27.136c-.544.045-.635.09-.635.633v5.969c0 .588.045.588.635.633.41.226.864.091 1.272.317zm0 0" transform="translate(-927.547 -304.901)" style="fill:#020203"/>
        <path data-name="Path 72" d="M611.729 325.313a3.694 3.694 0 0 0-3.491 4.838 2.749 2.749 0 0 0 1.633 1.764 18.04 18.04 0 0 0 4.035 1.221 16.434 16.434 0 0 1 5.939 2.306 5.594 5.594 0 0 1 2.4 4.568c.227 4.749-3.083 7.417-7.209 8a24.106 24.106 0 0 1-3.128.09 12.482 12.482 0 0 1-3.672-.588 15.294 15.294 0 0 1-3.809-1.99c-.634-.5-.725-.678-.272-1.312a3.862 3.862 0 0 1 1-1.266l.68-.95a10.6 10.6 0 0 0 6.3 2.8 8.561 8.561 0 0 0 4.489-.814 3.5 3.5 0 0 0 1.813-3.98 3.267 3.267 0 0 0-2.131-2.216 21.734 21.734 0 0 0-3.809-1.13 17.043 17.043 0 0 1-5.078-1.809 6.042 6.042 0 0 1-3.038-6.331c.363-3.256 2.222-5.246 5.305-6.241a9.636 9.636 0 0 1 1.995-.271 14.808 14.808 0 0 1 6.982 1.176 16.3 16.3 0 0 1 2.131 1.221c.227.181.272.317.091.588l-1.5 2.306c-.181.271-.272.226-.5.045a3.5 3.5 0 0 0-.952-.633 3.049 3.049 0 0 1-1.042-.452 11.1 11.1 0 0 0-5.162-.94zm0 0" transform="translate(-529.794 -300.983)" style="fill:#020203"/>
        <path data-name="Path 73" d="M446.152 319.45c3.174 0 6.393-.09 9.567 0a7.909 7.909 0 0 1 1.632 15.692 29.857 29.857 0 0 1-4.489.226c-.906 0-1.768.045-2.675 0-.408 0-.5.091-.5.5 0 2.759 0 5.517.045 8.276 0 .452-.091.588-.544.543-1-.045-1.995 0-2.992-.045a.972.972 0 0 1-.181-.724v-23.79a.781.781 0 0 1 .137-.678zm0 0" transform="translate(-394.82 -298.783)" style="fill:#020203"/>
        <path data-name="Path 74" d="M274.406 318.593c.227-.452.408-.9.635-1.357.045-.136.091-.362.272-.362s.181.226.272.362c1.269 2.759 2.494 5.472 3.763 8.23 2.539 5.563 5.078 11.17 7.617 16.733a1.646 1.646 0 0 0 .136.317h-3.808c-.226-.091-.317-.362-.408-.543-.589-1.311-1.179-2.623-1.769-3.98a.735.735 0 0 0-.725-.5c-3.536-.226-7.073-.045-10.564-.09a.167.167 0 0 0-.136.045c-.68 1.538-1.405 3.12-2.085 4.658a.593.593 0 0 1-.635.452c-1.088-.045-2.221-.045-3.31-.045-.136-.181 0-.362.045-.5 1.451-3.166 2.856-6.331 4.307-9.452l4.353-9.632c.59-1.266 1.178-2.578 1.768-3.844a.625.625 0 0 1 .272-.492zm0 0" transform="translate(-238.898 -296.615)" style="fill:#020203"/>
        <path data-name="Path 75" d="M919.883 330.041c-2.313 0-4.625 0-6.937.045a2.085 2.085 0 0 1-1.179.136c-.408 0-.635.136-.635.588v20.3a1.322 1.322 0 0 1-.181.995h-3.219c-.272 0-.363-.09-.317-.317v-21.205c0-.452-.091-.543-.544-.543-2.63.045-5.214 0-7.843.045-.454 0-.545-.136-.5-.543a16.552 16.552 0 0 0 0-2.125c0-.407.091-.543.544-.543h20.811a.679.679 0 0 1 .181.5v2.126a.72.72 0 0 1-.181.541zm0 0" transform="translate(-781.681 -305.168)" style="fill:#020203"/>
        <path data-name="Path 76" d="M800.308 349.477v3.934c0 .407-.136.5-.5.5h-7.888c-.408 0-.5-.136-.5-.5V345.5c0-.407.136-.5.5-.5h7.889c.408 0 .5.136.5.5zm0 0" transform="translate(-690.126 -320.67)" style="fill:#77c6dd"/>
        <path data-name="Path 77" d="M661.551 543.626a4.9 4.9 0 1 1-4.9-4.884 4.928 4.928 0 0 1 4.9 4.884zm0 0" transform="translate(-570.728 -486.375)" style="fill:#f5d55b"/>
        <path data-name="Path 78" d="M893.553 223.592a4.789 4.789 0 0 1 4.852-4.838 4.861 4.861 0 1 1 .045 9.722 4.814 4.814 0 0 1-4.897-4.884zm0 0" transform="translate(-777.432 -212.694)" style="fill:#bad9ba"/>
        <path data-name="Path 79" d="M1280.362 352.58c-1.859-2.985-3.718-6.015-5.577-9-.227-.362-.453-.724-.725-1.131a9.8 9.8 0 0 0 2.675-1.538 7.375 7.375 0 0 0 2.4-6.693c-.454-4.251-3.718-6.286-7.209-6.738-.181-.045-.408-.045-.589-.09a11.736 11.736 0 0 1 5.8 1.04 6.834 6.834 0 0 1 3.9 4.975 7.754 7.754 0 0 1-1.179 6.376 6.976 6.976 0 0 1-2.9 2.352c-.816.362-.816.316-.363 1.04l5.577 8.954a2.641 2.641 0 0 1 .227.5c-.722-.047-1.357-.047-2.037-.047zm0 0" transform="translate(-1100.403 -305.594)" style="fill:#bad9ba"/>
        <path data-name="Path 80" d="M95.223 319.654v25.234h-1.406c-.362.045-.5-.136-.453-.452v-24.149c0-.452.091-.678.634-.633a11.057 11.057 0 0 0 1.225 0zm0 0" transform="translate(-93.356 -298.987)" style="fill:#faeaaa"/>
        <path data-name="Path 81" d="M436.1 319.654v25.234h-1.4c-.363.045-.5-.136-.453-.452v-24.149c0-.452.091-.678.635-.633a11.046 11.046 0 0 0 1.218 0zm0 0" transform="translate(-384.77 -298.987)" style="fill:#faeaaa"/>
        <path data-name="Path 82" d="M263.844 318.326c-1.723 3.844-3.491 7.687-5.214 11.531-1.859 4.115-3.718 8.231-5.622 12.346h-1.451c-.363 0-.363-.136-.227-.407a972.554 972.554 0 0 1 3.128-6.874c1.813-4.025 3.627-8.05 5.486-12.074.907-1.99 1.769-3.934 2.675-5.924.045-.136.091-.362.272-.362s.181.226.272.362a8.088 8.088 0 0 0 .681 1.402zm0 0" transform="translate(-228.336 -296.348)" style="fill:#faeaaa"/>
        <path data-name="Path 83" d="M984.512 371v-21.482c0-.5.136-.678.635-.588.453.045.907 0 1.361.045v21.435c0 .5-.091.678-.635.633a6.853 6.853 0 0 0-1.361-.043zm0 0" transform="translate(-855.196 -324.012)" style="fill:#bad9ba"/>
        <path data-name="Path 84" d="M604.505 321.944a10.651 10.651 0 0 0-3.536 1.04 6.952 6.952 0 0 0-3.581 7.235c.272 2.623 1.949 4.07 4.171 5.065a30.32 30.32 0 0 0 5.26 1.492 18.633 18.633 0 0 1 2.675.9 3.512 3.512 0 0 1 .363 6.2 7.236 7.236 0 0 1-4.852.859 5.382 5.382 0 0 0 3.31-1.085c1.678-1.266 2.131-4.658-.635-5.879a23.568 23.568 0 0 0-4.624-1.357 13.807 13.807 0 0 1-5.26-2.171 5.566 5.566 0 0 1-2.312-4.432 7.722 7.722 0 0 1 .952-4.25 7.565 7.565 0 0 1 4.987-3.346 8.027 8.027 0 0 1 3.082-.271zm0 0" transform="translate(-522.615 -300.916)" style="fill:#fbecb2"/>
        <path data-name="Path 85" d="M753.823 423.761a16.236 16.236 0 0 1-3.99 10.582 21.362 21.362 0 0 1-11.2 7.462 13.567 13.567 0 0 1-11.426-1.538c-.363-.226-.363-.407-.136-.678.227-.317.363-.136.59 0a11.945 11.945 0 0 0 5.078 1.9 14.352 14.352 0 0 0 7.435-.995 20.441 20.441 0 0 0 11.335-10.221 14.265 14.265 0 0 0-4.534-18.134c-.272-.226-.318-.362-.136-.678.272-.407.408-.181.635 0a15.519 15.519 0 0 1 6.211 10.085c.045.317.091.678.136 1.04a10.136 10.136 0 0 1 .002 1.175zm0 0" transform="translate(-634.981 -377.318)" style="fill:#020203"/>
        <path data-name="Path 86" d="M204.526 415.938c.453 0 .952 0 1.405-.045.408-.045.5.136.5.5v10.763h-1.451c-.363 0-.453-.136-.453-.452V422c-.047-1.991-.001-4.026-.001-6.062zm0 0" transform="translate(-188.377 -381.298)" style="fill:#f9e9aa"/>
        <path data-name="Path 87" d="M206.281 319.693v10.175c0 .452-.136.588-.59.543s-.906 0-1.36-.045v-10.13c0-.452.136-.633.59-.588s.907 0 1.36.045zm0 0" transform="translate(-188.228 -298.981)" style="fill:#f9e9aa"/>
        <path data-name="Path 88" d="M1230.1 444.829v-9.045c0-.407.091-.543.544-.543 1.269.045 2.584 0 3.854 0 .181 0 .362-.045.5.045-.771 0-1.541.045-2.267 0-.454 0-.544.136-.544.588v8.366c0 .452-.09.633-.544.588-.503-.044-1.043.001-1.543.001zm0 0" transform="translate(-1065.145 -397.843)" style="fill:#bad9ba"/>
        <path data-name="Path 89" d="M726.528 421.883c-.045.09-.135.181-.181.271-3.4 4.613-6.846 9.226-10.247 13.883-.317.452-.5.045-.725-.045-.317-.136-.272-.317-.091-.588 3.4-4.567 6.8-9.18 10.2-13.793.091-.136.136-.407.363-.271a1.577 1.577 0 0 1 .681.543zm0 0" transform="translate(-624.915 -385.931)" style="fill:#020304"/>
        <path data-name="Path 90" d="M1095.286 431.685h-1.677c-.272 0-.363-.091-.363-.317V424c0-.271.091-.362.363-.317h1.677zm0 0" transform="translate(-948.152 -387.955)" style="fill:#bad9b9"/>
        <path data-name="Path 91" d="M1095.286 357.174h-1.677c-.272 0-.363-.09-.363-.317v-6.919c0-.271.091-.362.363-.317h1.677zm0 0" transform="translate(-948.152 -324.614)" style="fill:#bad9b9"/>
        <path data-name="Path 92" d="M305.25 458.169c.136-.136.317-.091.454-.091h10.428a.62.62 0 0 1 .68.407c.68 1.583 1.406 3.211 2.085 4.794-.453 0-.952 0-1.405.045-.363.045-.5-.136-.635-.452-.59-1.4-1.27-2.849-1.859-4.251a.588.588 0 0 0-.635-.407c-3.082-.045-6.075-.045-9.113-.045zm0 0" transform="translate(-274.502 -417.378)" style="fill:#f9eaaa"/>
        <path data-name="Path 93" d="M598.543 461.311a16.092 16.092 0 0 1-.952 1.447c-.317.407-.317.633.135.95a13.363 13.363 0 0 0 7.073 2.713 1.342 1.342 0 0 1 .454.091 14.644 14.644 0 0 1-7.209-1.447 1.889 1.889 0 0 0-.453-.181 13.728 13.728 0 0 1-1.451-2.8 8.2 8.2 0 0 0 1-1.447c.181-.271.272-.271.5-.045.314.267.631.448.903.719zm0 0" transform="translate(-523.182 -419.39)" style="fill:#faebb2"/>
        <path data-name="Path 94" d="M859.181 295.125a7.791 7.791 0 0 1-.634-.5c-.182-.181.09-.271.136-.407 1.541-2.035 3.128-4.115 4.67-6.15.227-.271.363-.407.68-.09.272.226.408.317.136.678-1.587 2.035-3.128 4.07-4.715 6.15a1.975 1.975 0 0 0-.273.319zm0 0" transform="translate(-747.458 -271.745)" style="fill:#030304"/>
        <path data-name="Path 95" d="M1177.605 330.711V327.5h1.587c.272 0 .408.09.408.407v2.487c0 .317-.136.407-.408.407a9.609 9.609 0 0 0-1.587-.09zm0 0" transform="translate(-1020.27 -305.703)" style="fill:#bad9ba"/>
        <path data-name="Path 96" d="M1179.168 482.582v-3.211h1.587c.272 0 .408.045.408.362v2.533c0 .317-.136.362-.408.362-.544-.046-1.043-.046-1.587-.046zm0 0" transform="translate(-1021.606 -435.596)" style="fill:#bad9b9"/>
        <path data-name="Path 97" d="M1045.754 330.308v-3.12h1.541c.317 0 .454.09.454.407v2.305c0 .362-.136.407-.454.407zm0 0" transform="translate(-907.552 -305.436)" style="fill:#bad9ba"/>
        <path data-name="Path 98" d="M1167.293 405.3v-3.12h1.587c.272 0 .408.045.408.362v2.442c0 .317-.136.362-.408.362-.544-.046-1.088-.046-1.587-.046zm0 0" transform="translate(-1011.454 -369.578)" style="fill:#bad9ba"/>
        <path data-name="Path 99" d="M658 344.381a8.737 8.737 0 0 1 4.806.633 5.552 5.552 0 0 1 1.451.769c-.317.181-.317.769-.68.724-.317-.045-.544-.362-.862-.543a8.541 8.541 0 0 0-4.715-1.583zm0 0" transform="translate(-576.068 -320.051)" style="fill:#faebb2"/>
        <path data-name="Path 100" d="M591.824 476.871a6.078 6.078 0 0 1 .544 1.085c-.363-.045-.5-.317-.725-.543s.136-.361.181-.542zm0 0" transform="translate(-519.273 -433.458)" style="fill:#f4e7b5"/>
        <path data-name="Path 101" d="M1243.4 348.759a15.857 15.857 0 0 1 4.852.271 4.608 4.608 0 0 1-.408 8.954 18.22 18.22 0 0 1-4.444.181.974.974 0 0 1-.181-.724v-7.959a.973.973 0 0 1 .181-.723zm0 0" transform="translate(-1076.362 -323.842)" style="fill:#fff"/>
        <path data-name="Path 102" d="M1232.183 348.8v9.4h-1.723c-.272 0-.363-.045-.363-.317v-8.818c0-.271.091-.316.363-.316.59.001 1.134.001 1.723.051zm0 0" transform="translate(-1065.145 -323.878)" style="fill:#bad9ba"/>
        <path data-name="Path 103" d="M471.521 350.66c-.136-.136-.091-.317-.091-.452v-8.773c0-.362.045-.5.454-.5 1.27.045 2.584.045 3.854.045a8.954 8.954 0 0 1 1.587.317 4.827 4.827 0 0 1 2.9 4.974 4.5 4.5 0 0 1-3.718 4.3 2.8 2.8 0 0 1-.862.091c-1.359.043-2.719.088-4.124-.002zm0 0" transform="translate(-416.561 -317.196)" style="fill:#fff"/>
        <path data-name="Path 104" d="M472.1 351.055c1.224 0 2.4 0 3.627-.045a4.885 4.885 0 0 0 4.171-2.08c1.587-2.532.816-6.828-3.355-7.416-.091 0-.181 0-.227-.09a8.317 8.317 0 0 1 2.584.181c2.811.678 3.9 2.94 3.536 5.471-.317 2.261-1.677 3.573-4.171 3.934a35.048 35.048 0 0 1-6.165.045zm0 0" transform="translate(-417.138 -317.591)" style="fill:#f9eaaa"/>
        <path data-name="Path 105" d="M321.2 392.281h-6.892a999.324 999.324 0 0 0 3.446-7.6c.272.045.317.317.408.543.907 2.035 1.813 4.115 2.766 6.151a1.525 1.525 0 0 1 .272.906zm0 0" transform="translate(-282.249 -354.611)" style="fill:#fff"/>
        <path data-name="Path 106" d="M341.5 380.257c-1.043-2.352-2.131-4.7-3.174-7.055l-.272-.543c.272-.678.589-1.357.862-2.034.272.407 3.809 8.049 4.4 9.587-.633.045-1.222.045-1.816.045zm0 0" transform="translate(-302.55 -342.587)" style="fill:#f9eaaa"/>
    </g>
</svg>
